<?xml version="1.0" standalone="no"?>
<!DOCTYPE svg PUBLIC "-//W3C//DTD SVG 20010904//EN"
 "http://www.w3.org/TR/2001/REC-SVG-20010904/DTD/svg10.dtd">
<svg version="1.0" xmlns="http://www.w3.org/2000/svg"
 width="1024.000000pt" height="1024.000000pt" viewBox="0 0 1024.000000 1024.000000"
 preserveAspectRatio="xMidYMid meet">
<metadata>
Created by potrace 1.11, written by Peter Selinger 2001-2013
</metadata>
<g transform="translate(0.000000,1024.000000) scale(0.100000,-0.100000)"
fill="#000000" stroke="none">
<path d="M919 10236 c-2 -2 -23 -6 -47 -10 -24 -3 -62 -11 -85 -17 -23 -6 -49
-13 -58 -14 -54 -11 -276 -118 -299 -144 -3 -3 -29 -26 -59 -50 -58 -48 -113
-105 -161 -167 -16 -21 -35 -45 -41 -52 -43 -52 -122 -249 -155 -392 -5 -19
-9 -1927 -11 -4240 -2 -4516 -5 -4268 47 -4435 97 -311 345 -561 660 -663 162
-53 -103 -50 4440 -48 2318 1 4227 5 4241 9 280 78 402 142 550 291 119 119
233 313 255 435 3 14 7 29 10 33 3 5 12 46 19 91 12 68 14 774 12 4287 -1
2313 -6 4219 -10 4235 -5 17 -12 49 -17 71 -44 194 -174 407 -329 535 -29 24
-59 49 -65 55 -6 6 -44 29 -84 53 -78 46 -165 81 -258 105 -32 8 -72 19 -89
23 -29 8 -8458 17 -8466 9z"/>
</g>
</svg>
